<?xml version="1.0" encoding="UTF-8" standalone="no"?>
<svg
   xmlns:dc="http://purl.org/dc/elements/1.1/"
   xmlns:cc="http://creativecommons.org/ns#"
   xmlns:rdf="http://www.w3.org/1999/02/22-rdf-syntax-ns#"
   xmlns:svg="http://www.w3.org/2000/svg"
   xmlns="http://www.w3.org/2000/svg"
   viewBox="0 0 64 64"
   version="1.1"
   id="svg4378"
   height="64"
   width="64">
  <defs
     id="defs4380" />
  <metadata
     id="metadata4383">
    <rdf:RDF>
      <cc:Work
         rdf:about="">
        <dc:format>image/svg+xml</dc:format>
        <dc:type
           rdf:resource="http://purl.org/dc/dcmitype/StillImage" />
        <dc:title></dc:title>
      </cc:Work>
    </rdf:RDF>
  </metadata>
  <g
     style="display:inline"
     id="layer1">
    <path
       style="display:inline;opacity:1;fill:#b3b3b3;fill-opacity:1"
       d="m 52.517189,26.24127 c -1.629062,-4.33458 -5.809032,-7.418631 -10.706774,-7.418631 -1.127677,0 -2.216651,0.163796 -3.247568,0.468507 -2.790166,-4.51071 -7.777629,-7.513742 -13.465273,-7.513742 -8.627346,0 -15.6467377,6.911375 -15.8296987,15.5048 -3.157848,1.83 -5.281259,5.2487 -5.281259,9.153521 0,5.833453 4.727096,10.567851 10.5554777,10.567851 l 35.18493,0 c 5.826625,0 10.55548,-4.743203 10.55548,-10.567851 0,-4.870018 -3.289791,-8.970345 -7.765315,-10.194455 z"
       id="path3351" />
  </g>
  <g
     style="display:inline"
     id="layer7">
    <path
       id="path4393-3"
       d="m 32.32329,37.222476 c -0.794073,0 -1.558221,0.143806 -2.270491,0.411807 -1.568196,-2.856514 -4.431253,-3.637187 -7.705311,-3.637187 -4.736514,0 -9.262184,2.54886 -9.601361,7.627837 -2.338329,0.89552 -4.1760327,3.805927 -4.1760327,6.653726 0,3.61041 3.4763777,6.374881 6.8142827,6.374881 l 19.911703,0 c 3.315958,0 6.652513,-2.775365 6.652513,-6.374881 0,-2.039434 -1.497018,-4.018392 -2.837766,-5.212419 -0.734218,-3.353302 -3.495521,-5.843764 -6.787537,-5.843764 z"
       style="display:inline;fill:#ffffff" />
  </g>
  <g
     style="display:inline"
     id="layer4">
    <path
       id="path4393"
       d="m 31.15046,39.959451 c -0.697497,0 -1.368707,0.115665 -1.994352,0.331223 -1.377469,-2.297534 -3.892315,-3.836236 -6.768177,-3.836236 -4.160451,0 -7.567322,3.221106 -7.865247,7.306198 -2.053939,0.72028 -3.526044,2.67082 -3.526044,4.961345 0,2.903903 2.343101,5.257519 5.275043,5.257519 l 17.490012,0 c 2.912664,0 5.275042,-2.362379 5.275042,-5.257519 0,-1.640346 -0.746567,-3.101936 -1.924251,-4.062309 -0.644922,-2.697107 -3.070391,-4.700221 -5.962026,-4.700221 z"
       style="fill:#808080" />
  </g>
  <g
     style="display:inline"
     id="layer14">
    <path
       id="path5843"
       d="m 39.944329,15.859644 c 0.561254,-0.06294 1.124257,-0.09616 1.697751,-0.09616 5.262852,0 9.88577,2.734585 12.527686,6.860941 2.337686,-0.535028 4.082645,-2.624432 4.082645,-5.112486 0,-1.634806 -0.744842,-3.094766 -1.919805,-4.054669 -0.643431,-2.689124 -3.063294,-4.68761 -5.948246,-4.68761 -0.695886,0 -1.365544,0.115398 -1.991492,0.330458 -1.372537,-2.2922262 -3.881572,-3.8273702 -6.750788,-3.8273702 -3.608813,0 -6.652875,2.4321021 -7.577808,5.7454272 2.269496,1.209931 4.26798,2.862222 5.880057,4.841474 z"
       style="display:inline;fill:#808080;fill-opacity:1" />
  </g>
</svg>
