<?xml version="1.0" encoding="UTF-8" standalone="no"?>
<svg
   xmlns:dc="http://purl.org/dc/elements/1.1/"
   xmlns:cc="http://creativecommons.org/ns#"
   xmlns:rdf="http://www.w3.org/1999/02/22-rdf-syntax-ns#"
   xmlns:svg="http://www.w3.org/2000/svg"
   xmlns="http://www.w3.org/2000/svg"
   viewBox="0 0 64 64"
   version="1.1"
   id="svg4378"
   height="64"
   width="64">
  <defs
     id="defs4380" />
  <metadata
     id="metadata4383">
    <rdf:RDF>
      <cc:Work
         rdf:about="">
        <dc:format>image/svg+xml</dc:format>
        <dc:type
           rdf:resource="http://purl.org/dc/dcmitype/StillImage" />
        <dc:title></dc:title>
      </cc:Work>
    </rdf:RDF>
  </metadata>
  <g
     style="display:inline"
     id="layer10" />
  <g
     style="display:inline"
     id="layer11" />
  <g
     style="display:inline"
     id="layer18">
    <g
       transform="matrix(0.70524439,0,0,0.70524439,20.087778,18.873153)"
       id="g5179"
       style="display:inline" />
    <circle
       id="circle5242"
       r="2.3577712"
       cy="54.096451"
       cx="31.402411"
       style="display:inline;fill:#c4c4c4;fill-opacity:1" />
    <circle
       id="circle5242-3"
       r="2.3577712"
       cy="59.749062"
       cx="36.979443"
       style="display:inline;fill:#c4c4c4;fill-opacity:1" />
    <circle
       id="circle5242-4"
       r="2.3577712"
       cy="54.051109"
       cx="42.511143"
       style="display:inline;fill:#c4c4c4;fill-opacity:1" />
    <circle
       id="circle5242-0"
       r="2.3577712"
       cy="59.658375"
       cx="48.057953"
       style="display:inline;fill:#c4c4c4;fill-opacity:1" />
    <circle
       id="circle5242-2"
       r="2.3577712"
       cy="54.096451"
       cx="53.544296"
       style="display:inline;fill:#c4c4c4;fill-opacity:1" />
  </g>
  <g
     style="display:inline"
     id="layer12" />
  <g
     style="display:inline"
     id="layer13">
    <g
       transform="translate(0.6230956,0)"
       id="g6753">
      <g
         style="display:inline"
         id="g6528"
         transform="matrix(0.91824634,0,0,0.91824634,2.2821896,-0.17793509)">
        <circle
           r="15.100616"
           cy="27.934057"
           cx="32.210968"
           id="path5432"
           style="display:inline;opacity:1;fill:#fbb03b;fill-opacity:1" />
        <path
           id="path5445"
           d="m 28.043338,44.523788 c 2.845199,0.682062 5.710425,0.733971 8.601299,0 l -4.308052,10.007705 z"
           style="display:inline;fill:#fbb03b;fill-opacity:1;fill-rule:evenodd;stroke:#001800;stroke-width:0;stroke-linecap:butt;stroke-linejoin:miter;stroke-miterlimit:4;stroke-dasharray:none;stroke-opacity:1" />
        <path
           id="path5445-3"
           d="m 28.043337,11.343363 c 2.845199,-0.682062 5.710425,-0.733971 8.6013,0 L 32.336584,1.3356581 Z"
           style="display:inline;fill:#fbb03b;fill-opacity:1;fill-rule:evenodd;stroke:#001800;stroke-width:0;stroke-linecap:butt;stroke-linejoin:miter;stroke-miterlimit:4;stroke-dasharray:none;stroke-opacity:1" />
        <path
           id="path5445-3-9"
           d="m 48.918209,23.6424 c 0.682062,2.845198 0.733971,5.710425 0,8.601301 l 10.007705,-4.308054 z"
           style="display:inline;fill:#fbb03b;fill-opacity:1;fill-rule:evenodd;stroke:#001800;stroke-width:0;stroke-linecap:butt;stroke-linejoin:miter;stroke-miterlimit:4;stroke-dasharray:none;stroke-opacity:1" />
        <path
           id="path5445-3-9-8"
           d="m 15.769764,32.243701 c -0.682062,-2.845198 -0.733971,-5.710425 0,-8.601301 L 5.7620603,27.950454 Z"
           style="display:inline;fill:#fbb03b;fill-opacity:1;fill-rule:evenodd;stroke:#001800;stroke-width:0;stroke-linecap:butt;stroke-linejoin:miter;stroke-miterlimit:4;stroke-dasharray:none;stroke-opacity:1" />
        <path
           id="path5445-3-2"
           d="m 17.539506,19.195148 c 1.529569,-2.49415 3.518885,-4.556878 6.082038,-6.082038 L 13.498776,9.0828463 Z"
           style="display:inline;fill:#fbb03b;fill-opacity:1;fill-rule:evenodd;stroke:#001800;stroke-width:0;stroke-linecap:butt;stroke-linejoin:miter;stroke-miterlimit:4;stroke-dasharray:none;stroke-opacity:1" />
        <path
           id="path5445-3-2-2"
           d="m 41.099749,42.760614 c 2.49415,-1.529568 4.556878,-3.518884 6.082038,-6.082037 l 4.030263,10.122768 z"
           style="display:inline;fill:#fbb03b;fill-opacity:1;fill-rule:evenodd;stroke:#001800;stroke-width:0;stroke-linecap:butt;stroke-linejoin:miter;stroke-miterlimit:4;stroke-dasharray:none;stroke-opacity:1" />
        <path
           id="path5445-3-2-1"
           d="m 41.104624,13.14313 c 2.49415,1.529568 4.556877,3.518884 6.082038,6.082037 L 51.216925,9.1023986 Z"
           style="display:inline;fill:#fbb03b;fill-opacity:1;fill-rule:evenodd;stroke:#001800;stroke-width:0;stroke-linecap:butt;stroke-linejoin:miter;stroke-miterlimit:4;stroke-dasharray:none;stroke-opacity:1" />
        <path
           id="path5445-3-2-1-6"
           d="M 23.612326,42.722437 C 21.118176,41.192869 19.055449,39.203552 17.530288,36.6404 l -4.030263,10.122767 z"
           style="display:inline;fill:#fbb03b;fill-opacity:1;fill-rule:evenodd;stroke:#001800;stroke-width:0;stroke-linecap:butt;stroke-linejoin:miter;stroke-miterlimit:4;stroke-dasharray:none;stroke-opacity:1" />
      </g>
      <path
         style="display:inline;fill:#ffffff"
         d="m 22.762414,30.003371 c -0.731557,0 -1.435546,0.132484 -2.09174,0.379386 -1.444735,-2.631627 -4.08239,-3.663339 -7.098687,-3.663339 -4.3636185,0 -8.5329919,2.660694 -8.8454661,7.339813 -2.1542369,0.825018 -3.8472631,3.506294 -3.8472631,6.129892 0,3.32617 3.2026907,5.872999 6.2778087,5.872999 l 18.3440965,0 c 3.054899,0 6.128773,-2.556865 6.128773,-5.872999 0,-1.878874 -1.379161,-3.702032 -2.614354,-4.802056 -0.676415,-3.089304 -3.220326,-5.383696 -6.253168,-5.383696 z"
         id="path4393-3" />
      <path
         style="display:inline;fill:#808080"
         d="m 22.188247,31.920031 c -0.640474,0 -1.25681,0.106209 -1.831306,0.304145 -1.264856,-2.109702 -3.574104,-3.52261 -6.214854,-3.52261 -3.82032,0 -6.9486669,2.957769 -7.2222354,6.70889 -1.886022,0.661394 -3.2377768,2.45247 -3.2377768,4.555737 0,2.666498 2.1515437,4.827697 4.8437888,4.827697 l 16.0601404,0 c 2.674543,0 4.843788,-2.169246 4.843788,-4.827697 0,-1.506242 -0.685532,-2.848342 -1.766936,-3.730201 -0.592198,-2.476608 -2.819376,-4.315961 -5.474609,-4.315961 z"
         id="path4393" />
      <path
         id="path3351-8"
         d="m 27.827377,35.502359 c 1.132397,-3.170086 4.037988,-5.425601 7.442515,-5.425601 0.783873,0 1.540844,0.119792 2.257456,0.342642 1.939506,-3.2989 5.333641,-5.188956 9.28725,-5.188956 5.997058,0 10.949152,4.748416 11.076333,11.033199 2.19509,1.338367 3.67112,3.838627 3.67112,6.694411 0,4.266285 -3.28591,7.728778 -7.337347,7.728778 l -24.457821,0 c -4.050216,0 -7.482868,-3.545484 -7.482868,-7.805329 0,-3.561679 2.432327,-6.483893 5.543362,-7.379144 z"
         style="display:inline;opacity:1;fill:#ffffff;fill-opacity:1" />
      <path
         id="path3351"
         d="m 29.262336,36.570111 c 1.049622,-2.792819 3.742824,-4.779907 6.898492,-4.779907 0.726575,0 1.428213,0.105536 2.092445,0.301865 1.797734,-2.906301 5.011212,-4.841188 8.675825,-4.841188 5.558694,0 10.081367,4.453075 10.19925,9.989914 2.034638,1.17909 3.402775,3.381796 3.402775,5.897716 0,3.758558 -3.045721,6.808984 -6.801013,6.808984 l -22.670041,0 c -3.754158,0 -6.801013,-3.056099 -6.801013,-6.808984 0,-3.137807 2.11965,-5.779693 5.00328,-6.5684 z"
         style="display:inline;opacity:1;fill:#b3b3b3;fill-opacity:1" />
    </g>
  </g>
</svg>
